<?xml version="1.0" encoding="UTF-8" standalone="no"?>
<!DOCTYPE svg PUBLIC "-//W3C//DTD SVG 1.1//EN" "http://www.w3.org/Graphics/SVG/1.1/DTD/svg11.dtd">
<svg width="100%" height="100%" viewBox="0 0 407 471" version="1.1" xmlns="http://www.w3.org/2000/svg" xmlns:xlink="http://www.w3.org/1999/xlink" xml:space="preserve" xmlns:serif="http://www.serif.com/" style="fill-rule:evenodd;clip-rule:evenodd;stroke-linecap:round;stroke-linejoin:round;stroke-miterlimit:1.5;">
    <g transform="matrix(1,0,0,1,-1037.697027,-253.046242)">
        <g transform="matrix(0.552882,0,0,0.101637,668.764626,244.027688)">
            <rect x="997" y="252" width="132" height="208" style="fill:rgb(149,145,140);"/>
        </g>
        <g transform="matrix(0.276441,0,0,0.101637,980.866342,244.027688)">
            <rect x="997" y="252" width="132" height="208" style="fill:rgb(140,136,130);"/>
        </g>
        <g transform="matrix(0.218282,0,0,0.453978,907.70138,493.485148)">
            <rect x="997" y="252" width="132" height="208" style="fill:rgb(137,131,131);"/>
        </g>
        <g transform="matrix(0.109141,0,0,0.391399,1030.921387,520.529984)">
            <rect x="997" y="252" width="132" height="208" style="fill-opacity:0.05;"/>
        </g>
        <g transform="matrix(0.218282,0,0,0.453978,1141.187505,493.485148)">
            <rect x="997" y="252" width="132" height="208" style="fill:rgb(137,131,131);"/>
        </g>
        <g transform="matrix(0.109141,0,0,0.391399,1264.407512,520.529984)">
            <rect x="997" y="252" width="132" height="208" style="fill-opacity:0.05;"/>
        </g>
        <g transform="matrix(1.55303,0,0,1.475962,-394.229818,-81.161673)">
            <rect x="997" y="252" width="132" height="208" style="fill:rgb(220,213,205);"/>
        </g>
        <g transform="matrix(1,0,0,1,230.124349,57.30312)">
            <g transform="matrix(0.695977,0,0,0.229939,286.530081,502.982097)">
                <rect x="997" y="252" width="132" height="208" style="fill:rgb(223,218,212);"/>
            </g>
            <g transform="matrix(0.089916,0,0,0.229939,970.772505,502.982097)">
                <rect x="997" y="252" width="132" height="208" style="fill-opacity:0.05;"/>
            </g>
            <g transform="matrix(0.236961,0,0,0.229939,758.77837,502.982097)">
                <rect x="997" y="252" width="132" height="208" style="fill-opacity:0.05;"/>
            </g>
        </g>
        <g transform="matrix(2.423679,0,0,0.108413,-1319.893243,569.29268)">
            <rect x="997" y="252" width="132" height="208" style="fill:rgb(70,71,74);"/>
        </g>
        <g transform="matrix(2.423679,0,0,0.108413,-1319.893243,673.253463)">
            <rect x="997" y="252" width="132" height="208" style="fill:rgb(137,131,131);"/>
        </g>
        <g transform="matrix(0.775276,0,0,1.470346,483.527393,-79.746629)">
            <rect x="997" y="252" width="132" height="208" style="fill-opacity:0.05;"/>
        </g>
        <g transform="matrix(0.078307,0,0,1.470346,1101.716193,-79.746629)">
            <rect x="997" y="252" width="132" height="208" style="fill-opacity:0.05;"/>
        </g>
        <g transform="matrix(0.032852,0,0,0.398231,1092.574709,516.983873)">
            <rect x="997" y="252" width="132" height="208" style="fill-opacity:0.05;"/>
        </g>
        <g transform="matrix(0.032852,0,0,0.398231,1326.060834,516.983873)">
            <rect x="997" y="252" width="132" height="208" style="fill-opacity:0.05;"/>
        </g>
        <g transform="matrix(2.424386,0,0,0.054228,-1320.691178,698.182886)">
            <rect x="997" y="252" width="132" height="208" style="fill-opacity:0.05;"/>
        </g>
        <g transform="matrix(2.424386,0,0,0.054228,-1320.691178,593.284995)">
            <rect x="997" y="252" width="132" height="208" style="fill-opacity:0.19;"/>
        </g>
        <g transform="matrix(1.552578,0,0,0.108413,-393.735716,262.983137)">
            <rect x="997" y="252" width="132" height="208" style="fill:rgb(166,163,158);"/>
        </g>
        <g transform="matrix(1.55303,0,0,0.054228,-394.246863,286.975452)">
            <rect x="997" y="252" width="132" height="208" style="fill-opacity:0.05;"/>
        </g>
        <g>
            <g transform="matrix(1,0,0,1,230.124349,57.30312)">
                <g transform="matrix(0.110402,0,0,0.110402,956.716297,212.303523)">
                    <circle cx="1131.752" cy="238.089" r="25.752" style="fill:rgb(70,71,74);"/>
                </g>
                <g transform="matrix(1,0,0,1,-57.291429,-143.662948)">
                    <path d="M1138.955,382.252L1138.955,356L1271,356" style="fill:none;stroke:rgb(70,71,74);stroke-width:1.25px;"/>
                </g>
            </g>
            <g transform="matrix(1,0,0,1,230.124349,344.819278)">
                <g transform="matrix(0.110402,0,0,0.110402,956.716297,212.303523)">
                    <circle cx="1131.752" cy="238.089" r="25.752" style="fill:rgb(70,71,74);"/>
                </g>
                <g transform="matrix(1,0,0,1,-57.291429,-143.662948)">
                    <path d="M1138.955,382.252L1138.955,356L1271,356" style="fill:none;stroke:rgb(70,71,74);stroke-width:1.25px;"/>
                </g>
            </g>
            <g transform="matrix(1,0,0,-1,202.124349,890.708408)">
                <g transform="matrix(0.110402,0,0,0.110402,956.716297,212.303523)">
                    <circle cx="1131.752" cy="238.089" r="25.752" style="fill:rgb(70,71,74);"/>
                </g>
                <g transform="matrix(1,0,0,1,-57.291429,-143.662948)">
                    <path d="M1138.955,382.252L1138.955,356L1298.363,356" style="fill:none;stroke:rgb(70,71,74);stroke-width:1.25px;"/>
                </g>
            </g>
            <g transform="matrix(-1,0,0,1,2311.474666,41.334189)">
                <g transform="matrix(0.110402,0,0,0.110402,956.716297,212.303523)">
                    <circle cx="1131.752" cy="238.089" r="25.752" style="fill:rgb(70,71,74);"/>
                </g>
                <g transform="matrix(1,0,0,1,-57.291429,-143.662948)">
                    <path d="M1138.955,382.252L1138.955,356L1329.07,356" style="fill:none;stroke:rgb(70,71,74);stroke-width:1.25px;"/>
                </g>
            </g>
            <g transform="matrix(-1,0,0,1,2252.030598,109.711934)">
                <g transform="matrix(0.110402,0,0,0.110402,956.716297,212.303523)">
                    <circle cx="1131.752" cy="238.089" r="25.752" style="fill:rgb(70,71,74);"/>
                </g>
                <g transform="matrix(1,0,0,1,-57.291429,-143.662948)">
                    <path d="M1138.955,382.252L1138.955,356L1271,356" style="fill:none;stroke:rgb(70,71,74);stroke-width:1.25px;"/>
                </g>
            </g>
            <g transform="matrix(-1,0,0,1,2252.030598,206.8664)">
                <g transform="matrix(0.110402,0,0,0.110402,956.716297,212.303523)">
                    <circle cx="1131.752" cy="238.089" r="25.752" style="fill:rgb(70,71,74);"/>
                </g>
                <g transform="matrix(1,0,0,1,-57.291429,-143.662948)">
                    <path d="M1138.955,382.252L1138.955,356L1271,356" style="fill:none;stroke:rgb(70,71,74);stroke-width:1.25px;"/>
                </g>
            </g>
            <g transform="matrix(-1,0,0,1,2252.030598,346.330316)">
                <g transform="matrix(0.110402,0,0,0.110402,956.716297,212.303523)">
                    <circle cx="1131.752" cy="238.089" r="25.752" style="fill:rgb(70,71,74);"/>
                </g>
                <g transform="matrix(1,0,0,1,-57.291429,-143.662948)">
                    <path d="M1138.955,382.252L1138.955,356L1271,356" style="fill:none;stroke:rgb(70,71,74);stroke-width:1.25px;"/>
                </g>
            </g>
        </g>
    </g>
</svg>
