<?xml version="1.0" encoding="UTF-8" standalone="no"?>
<!DOCTYPE svg PUBLIC "-//W3C//DTD SVG 1.1//EN" "http://www.w3.org/Graphics/SVG/1.1/DTD/svg11.dtd">
<svg width="100%" height="100%" viewBox="0 0 1070 230" version="1.1" xmlns="http://www.w3.org/2000/svg" xmlns:xlink="http://www.w3.org/1999/xlink" xml:space="preserve" xmlns:serif="http://www.serif.com/" style="fill-rule:evenodd;clip-rule:evenodd;stroke-linejoin:round;stroke-miterlimit:2;">
    <g>
        <path d="M73.96,83.92L73.96,219.11C73.96,223.19 68.86,225.18 65.97,222.23L1.28,156.2C0.46,155.36 0,154.24 0,153.08L0,83.92C0,81.42 2.08,79.4 4.64,79.4L69.33,79.4C71.89,79.4 73.97,81.42 73.97,83.92" style="fill:rgb(30,240,240);fill-rule:nonzero;"/>
        <path d="M89.31,155.19L198.63,155.19C202.85,155.19 204.88,160.38 201.78,163.26L137.87,222.59C137.01,223.38 135.89,223.83 134.72,223.83L89.31,223.83C86.75,223.83 84.67,221.75 84.67,219.18L84.67,159.85C84.67,157.28 86.74,155.2 89.31,155.2" style="fill:rgb(30,240,240);fill-rule:nonzero;"/>
        <path d="M296.6,223.82L165.21,223.82C160.99,223.82 158.96,218.63 162.06,215.75L225.97,156.42C226.83,155.62 227.95,155.18 229.12,155.18L296.6,155.18C299.16,155.18 301.24,157.26 301.24,159.83L301.24,219.16C301.24,221.73 299.17,223.81 296.6,223.81" style="fill:rgb(30,240,240);fill-rule:nonzero;"/>
        <path d="M227.33,140.06L227.33,4.91C227.33,0.83 232.43,-1.16 235.32,1.79L300.01,67.8C300.83,68.64 301.29,69.76 301.29,70.92L301.29,140.06C301.29,142.56 299.21,144.58 296.65,144.58L231.96,144.58C229.4,144.58 227.32,142.56 227.32,140.06" style="fill:rgb(30,240,240);fill-rule:nonzero;"/>
        <path d="M211.93,68.63L102.61,68.63C98.39,68.63 96.36,63.44 99.46,60.56L163.37,1.24C164.23,0.44 165.35,0 166.52,0L211.93,0C214.49,0 216.57,2.08 216.57,4.65L216.57,63.98C216.57,66.55 214.5,68.63 211.93,68.63" style="fill:rgb(30,240,240);fill-rule:nonzero;"/>
        <path d="M4.64,0L136.03,0C140.25,0 142.28,5.19 139.18,8.07L75.27,67.4C74.41,68.2 73.29,68.64 72.12,68.64L4.64,68.64C2.08,68.63 0,66.55 0,63.98L0,4.65C0,2.08 2.08,0 4.64,0" style="fill:rgb(30,240,240);fill-rule:nonzero;"/>
    </g>
    <g>
        <path d="M430.75,203.19C467.33,203.19 488.54,176.86 488.54,133.25C488.54,89.64 467.33,62.24 430.75,62.24C394.17,62.24 373.23,88.83 373.23,133.25C373.23,177.67 394.44,203.19 430.75,203.19M430.75,229.51C375.61,229.51 339.56,190.42 339.56,132.98C339.56,75.54 375.35,35.91 430.75,35.91C486.15,35.91 521.94,73.14 521.94,133.24C521.94,193.34 485.62,229.51 430.75,229.51" style="fill:white;fill-rule:nonzero;"/>
        <path d="M604.39,110.37C588.75,110.37 573.9,122.87 569.4,146.27L570.2,223.66C570.2,224.73 569.14,225.79 568.08,225.79L540.51,225.79C539.45,225.79 538.39,224.73 538.39,223.66L539.45,131.91L538.39,41.76C538.39,40.7 539.45,39.63 540.51,39.63L568.08,39.63C569.14,39.63 570.2,40.7 570.2,41.76L569.67,107.18C578.68,94.15 593,85.64 612.62,85.64C642.31,85.64 660.6,103.72 660.07,143.61L660.07,172.06L660.6,223.65C660.6,224.72 659.54,225.78 658.48,225.78L630.11,225.78C629.05,225.78 627.99,224.72 627.99,223.65L628.79,172.59L628.52,140.15C628.52,119.41 617.92,110.36 604.4,110.36" style="fill:white;fill-rule:nonzero;"/>
        <path d="M711.49,174.73L712.29,223.66C712.29,224.72 711.23,225.79 710.17,225.79L681.28,225.79C680.22,225.79 679.16,224.73 679.16,223.66L679.96,174.73L679.69,90.96C679.69,89.9 680.75,88.83 681.81,88.83L708.58,88.83C709.64,88.83 710.7,89.89 710.7,90.96L709.9,108.78C718.92,94.95 731.64,85.64 750.72,85.64C769.8,85.64 783.59,94.15 789.95,112.77C800.82,93.09 814.34,85.64 832.1,85.64C859.14,85.64 875.05,102.4 875.05,139.36L875.05,174.73L875.84,223.66C875.84,224.72 874.78,225.79 873.72,225.79L845.35,225.79C844.29,225.79 843.23,224.73 843.23,223.66L843.76,174.73L843.76,140.16C843.76,119.42 835.28,110.64 821.76,110.64C809.56,110.64 797.64,123.4 793.66,146.54L793.66,174.73L794.19,223.66C794.19,224.72 793.13,225.79 792.07,225.79L763.7,225.79C762.64,225.79 761.58,224.73 761.58,223.66L762.38,174.73L762.38,140.16C762.38,119.42 753.9,110.64 740.38,110.64C726.86,110.64 714.14,125.53 711.48,152.66L711.48,174.73L711.49,174.73Z" style="fill:white;fill-rule:nonzero;"/>
        <path d="M896.26,225.79C895.2,225.79 894.14,224.73 894.14,223.66L894.94,161.43L894.67,90.96C894.67,89.9 895.73,88.83 896.79,88.83L923.56,88.83C924.62,88.83 925.68,89.89 925.68,90.96L924.89,108.78C933.64,96.01 949.28,85.64 969.69,85.64C998.06,85.64 1016.35,104.79 1016.35,139.36L1016.35,167.55L1016.88,223.66C1016.88,224.73 1015.82,225.79 1014.76,225.79L986.66,225.79C985.6,225.79 984.54,224.73 984.54,223.66L985.07,167.55L985.07,140.16C985.07,120.75 974.73,110.64 960.15,110.64C944.24,110.64 929.13,124.2 926.48,152.66L926.48,167.55L927.01,223.66C927.01,224.73 925.95,225.79 924.89,225.79L896.26,225.79Z" style="fill:white;fill-rule:nonzero;"/>
        <path d="M1038.61,225.79C1037.55,225.79 1036.49,224.73 1036.49,223.66L1037.02,156.38L1036.49,90.96C1036.49,89.9 1037.55,88.83 1038.61,88.83L1066.98,88.83C1068.04,88.83 1069.1,89.89 1069.1,90.96L1068.3,156.38L1069.1,223.66C1069.1,224.73 1068.04,225.79 1066.98,225.79L1038.61,225.79Z" style="fill:white;fill-rule:nonzero;"/>
        <path d="M1038.64,78.07C1037.57,78.07 1036.5,76.97 1036.5,75.88L1036.5,47.67C1036.5,46.58 1037.57,45.48 1038.64,45.48L1066.96,45.48C1068.03,45.48 1069.1,46.58 1069.1,47.67L1069.1,75.88C1069.1,76.97 1068.03,78.07 1066.96,78.07L1038.64,78.07Z" style="fill:rgb(30,240,240);fill-rule:nonzero;"/>
    </g>
</svg>
