<?xml version="1.0" standalone="no"?>
<!DOCTYPE svg PUBLIC "-//W3C//DTD SVG 20010904//EN"
 "http://www.w3.org/TR/2001/REC-SVG-20010904/DTD/svg10.dtd">
<svg version="1.0" xmlns="http://www.w3.org/2000/svg"
 width="200.000000pt" height="200.000000pt" viewBox="0 0 200.000000 200.000000"
 preserveAspectRatio="xMidYMid meet">

<g transform="translate(0.000000,200.000000) scale(0.100000,-0.100000)"
fill="#000000" stroke="none">
<path d="M0 1000 l0 -1000 1000 0 1000 0 0 1000 0 1000 -1000 0 -1000 0 0
-1000z m948 489 c2 -10 -54 -68 -144 -152 l-148 -137 -168 0 -168 0 0 149 c0
110 3 151 13 154 6 3 147 4 312 3 265 -1 300 -3 303 -17z m341 8 c8 -10 11
-57 9 -153 l-3 -139 -259 -3 c-161 -1 -263 1 -270 8 -10 10 -14 7 180 186
l119 110 106 3 c82 1 108 -1 118 -12z m239 -150 l153 -153 -3 -169 -3 -170
-160 0 -160 0 -3 323 c-2 256 0 322 10 322 8 0 82 -69 166 -153z m-880 -525
c2 -304 1 -323 -15 -320 -10 2 -84 71 -165 154 l-148 151 0 166 c0 123 3 167
13 171 6 2 80 4 162 3 l150 -2 3 -323z m586 -31 c8 -12 -10 -31 -164 -173
l-135 -124 -97 -3 c-143 -3 -138 -8 -138 158 0 76 3 141 7 144 10 11 521 8
527 -2z m446 -141 c0 -82 -3 -150 -7 -150 -5 0 -145 0 -313 -1 -260 -1 -305 1
-308 14 -2 8 61 74 144 151 l147 136 169 0 168 0 0 -150z"/>
</g>
</svg>
