<?xml version="1.0" encoding="UTF-8"?>
<svg id="Logo" xmlns="http://www.w3.org/2000/svg" viewBox="0 0 1069.1 229.51">
  <defs>
    <style>
      .cls-1 {
        fill: #1ef0f0;
      }

      .cls-1, .cls-2 {
        stroke-width: 0px;
      }

      .cls-2 {
        fill: #231f20;
      }
    </style>
  </defs>
  <g>
    <path class="cls-1" d="M73.96,83.92v135.19c0,4.08-5.1,6.07-7.99,3.12L1.28,156.2c-.82-.84-1.28-1.96-1.28-3.12v-69.16c0-2.5,2.08-4.52,4.64-4.52h64.69c2.56,0,4.64,2.02,4.64,4.52"/>
    <path class="cls-1" d="M89.31,155.19h109.32c4.22,0,6.25,5.19,3.15,8.07l-63.91,59.33c-.86.79-1.98,1.24-3.15,1.24h-45.41c-2.56,0-4.64-2.08-4.64-4.65v-59.33c0-2.57,2.07-4.65,4.64-4.65"/>
    <path class="cls-1" d="M296.6,223.82h-131.39c-4.22,0-6.25-5.19-3.15-8.07l63.91-59.33c.86-.8,1.98-1.24,3.15-1.24h67.48c2.56,0,4.64,2.08,4.64,4.65v59.33c0,2.57-2.07,4.65-4.64,4.65"/>
    <path class="cls-1" d="M227.33,140.06V4.91c0-4.08,5.1-6.07,7.99-3.12l64.69,66.01c.82.84,1.28,1.96,1.28,3.12v69.14c0,2.5-2.08,4.52-4.64,4.52h-64.69c-2.56,0-4.64-2.02-4.64-4.52"/>
    <path class="cls-1" d="M211.93,68.63h-109.32c-4.22,0-6.25-5.19-3.15-8.07L163.37,1.24c.86-.8,1.98-1.24,3.15-1.24h45.41c2.56,0,4.64,2.08,4.64,4.65v59.33c0,2.57-2.07,4.65-4.64,4.65"/>
    <path class="cls-1" d="M4.64,0h131.39c4.22,0,6.25,5.19,3.15,8.07l-63.91,59.33c-.86.8-1.98,1.24-3.15,1.24H4.64C2.08,68.63,0,66.55,0,63.98V4.65C0,2.08,2.08,0,4.64,0"/>
  </g>
  <g>
    <path class="cls-2" d="M430.75,203.19c36.58,0,57.79-26.33,57.79-69.94s-21.21-71.01-57.79-71.01-57.52,26.59-57.52,71.01,21.21,69.94,57.52,69.94M430.75,229.51c-55.14,0-91.19-39.09-91.19-96.53s35.79-97.07,91.19-97.07,91.19,37.23,91.19,97.33-36.32,96.27-91.19,96.27"/>
    <path class="cls-2" d="M604.39,110.37c-15.64,0-30.49,12.5-34.99,35.9l.8,77.39c0,1.07-1.06,2.13-2.12,2.13h-27.57c-1.06,0-2.12-1.06-2.12-2.13l1.06-91.75-1.06-90.15c0-1.06,1.06-2.13,2.12-2.13h27.57c1.06,0,2.12,1.07,2.12,2.13l-.53,65.42c9.01-13.03,23.33-21.54,42.95-21.54,29.69,0,47.98,18.08,47.45,57.97v28.45l.53,51.59c0,1.07-1.06,2.13-2.12,2.13h-28.37c-1.06,0-2.12-1.06-2.12-2.13l.8-51.06-.27-32.44c0-20.74-10.6-29.79-24.12-29.79"/>
    <path class="cls-2" d="M711.49,174.73l.8,48.93c0,1.06-1.06,2.13-2.12,2.13h-28.89c-1.06,0-2.12-1.06-2.12-2.13l.8-48.93-.27-83.77c0-1.06,1.06-2.13,2.12-2.13h26.77c1.06,0,2.12,1.06,2.12,2.13l-.8,17.82c9.02-13.83,21.74-23.14,40.82-23.14s32.87,8.51,39.23,27.13c10.87-19.68,24.39-27.13,42.15-27.13,27.04,0,42.95,16.76,42.95,53.72v35.37l.79,48.93c0,1.06-1.06,2.13-2.12,2.13h-28.37c-1.06,0-2.12-1.06-2.12-2.13l.53-48.93v-34.57c0-20.74-8.48-29.52-22-29.52-12.2,0-24.12,12.76-28.1,35.9v28.19l.53,48.93c0,1.06-1.06,2.13-2.12,2.13h-28.37c-1.06,0-2.12-1.06-2.12-2.13l.8-48.93v-34.57c0-20.74-8.48-29.52-22-29.52s-26.24,14.89-28.9,42.02v22.07Z"/>
    <path class="cls-2" d="M896.26,225.79c-1.06,0-2.12-1.06-2.12-2.13l.8-62.23-.27-70.47c0-1.06,1.06-2.13,2.12-2.13h26.77c1.06,0,2.12,1.06,2.12,2.13l-.79,17.82c8.75-12.77,24.39-23.14,44.8-23.14,28.37,0,46.66,19.15,46.66,53.72v28.19l.53,56.11c0,1.07-1.06,2.13-2.12,2.13h-28.1c-1.06,0-2.12-1.06-2.12-2.13l.53-56.11v-27.39c0-19.41-10.34-29.52-24.92-29.52-15.91,0-31.02,13.56-33.67,42.02v14.89l.53,56.11c0,1.07-1.06,2.13-2.12,2.13h-28.63Z"/>
    <path class="cls-2" d="M1038.61,225.79c-1.06,0-2.12-1.06-2.12-2.13l.53-67.28-.53-65.42c0-1.06,1.06-2.13,2.12-2.13h28.37c1.06,0,2.12,1.06,2.12,2.13l-.8,65.42.8,67.28c0,1.07-1.06,2.13-2.12,2.13h-28.37Z"/>
    <path class="cls-1" d="M1038.64,78.07c-1.07,0-2.14-1.1-2.14-2.19v-28.21c0-1.09,1.07-2.19,2.14-2.19h28.32c1.07,0,2.14,1.1,2.14,2.19v28.21c0,1.09-1.07,2.19-2.14,2.19h-28.32Z"/>
  </g>
</svg>